#!OML:ASF E:\emotionWalksFemale\Project 1\Capture day 1\Session 1\Female1.ASF
:FULLY-SPECIFIED
:DEGREES
438
root 8.78232 15.3762 -5.88262 -173.741 -3.11206 -180.376
lowerback 22.4614 0.553065 0.451793
upperback 0.261679 0.564528 -0.340808
thorax -12.3423 0.119686 -0.803183
lowerneck -11.4657 -3.19988 -5.04087
upperneck -2.75405 -4.07308 4.14233
head 1.29407 -2.08487 2.00327
rclavicle 1.50828e-014 -1.3418e-015
rhumerus -21.9088 52.0538 -62.1511
rradius 77.3683
rwrist 0.863736
rhand 3.06306 -40.4
rfingers 7.12502
rthumb 28.5208 -68.2452
lclavicle 1.50828e-014 -1.3418e-015
lhumerus -34.9765 -50.1542 67.1725
lradius 60.1627
lwrist -7.51371
lhand -13.4146 -60.8313
lfingers 7.12502
lthumb 12.6935 -31.2371
rfemur -25.3917 2.6801 26.5027
rtibia 45.0291
rfoot -16.1151 -19.7183
rtoes -0.470319
lfemur -27.4716 -4.35991 -23.1283
ltibia 53.0805
lfoot -22.6823 1.10146
ltoes -39.2371
439
root 8.77004 15.4502 -5.956 -174.172 -3.2096 -180.466
lowerback 21.7506 0.555889 0.52337
upperback 0.0539683 0.619836 -0.32986
thorax -12.1791 0.156188 -0.846573
lowerneck -11.6182 -3.10331 -5.54874
upperneck -1.83704 -3.83361 4.50376
head 1.63818 -1.92774 2.22692
rclavicle 9.13167e-015 -4.96962e-015
rhumerus -25.407 51.7509 -65.7418
rradius 76.1416
rwrist 0.595047
rhand 2.48395 -40.0989
rfingers 7.12502
rthumb 27.9673 -68.0356
lclavicle 9.13167e-015 -4.96962e-015
lhumerus -37.9087 -49.6144 70.8442
lradius 58.9364
lwrist -6.91807
lhand -13.7217 -60.3252
lfingers 7.12502
lthumb 12.3974 -30.7129
rfemur -24.1898 3.22144 26.3017
rtibia 44.231
rfoot -16.0805 -20.1977
rtoes -2.65177
lfemur -26.2314 -5.11803 -23.2058
ltibia 51.2533
lfoot -22.931 1.95304
ltoes -39.5375
440
root 8.76132 15.5172 -6.02331 -174.543 -3.32111 -180.477
lowerback 21.0594 0.563646 0.592766
upperback -0.113083 0.68044 -0.265406
thorax -11.9786 0.195281 -0.829048
lowerneck -12.1673 -3.20423 -5.84441
upperneck -0.811554 -3.87719 4.66432
head 2.09637 -1.92092 2.33036
rclavicle 1.5381e-014 -4.27387e-015
rhumerus -28.5505 51.1348 -69.0878
rradius 74.8251
rwrist 0.425332
rhand 2.22799 -40.0789
rfingers 7.12502
rthumb 27.7226 -68.0552
lclavicle 1.5381e-014 -4.27387e-015
lhumerus -40.3607 -48.4091 74.1143
lradius 57.6218
lwrist -6.98453
lhand -14.1764 -59.7653
lfingers 7.12502
lthumb 11.959 -30.1269
rfemur -23.104 3.80832 26.2231
rtibia 43.348
rfoot -16.2759 -20.6771
rtoes -3.72174
lfemur -25.1634 -5.86978 -23.1728
ltibia 49.3552
lfoot -23.3078 3.00866
ltoes -39.7723
441
root 8.75213 15.5758 -6.08801 -174.822 -3.34716 -180.501
lowerback 20.3252 0.625968 0.591952
upperback -0.321797 0.796718 -0.202847
thorax -11.799 0.265158 -0.789503
lowerneck -11.423 -3.16691 -6.3016
upperneck -0.885218 -3.79191 5.00727
head 1.9571 -1.86654 2.54159
rclavicle 4.99446e-015 -9.93923e-016
rhumerus -31.588 50.1398 -72.387
rradius 73.3687
rwrist 0.367463
rhand 1.98074 -40.2118
rfingers 7.12502
rthumb 27.4862 -68.226
lclavicle 4.99446e-015 -9.93923e-016
lhumerus -42.3566 -46.9885 76.9752
lradius 56.213
lwrist -7.14968
lhand -14.1704 -59.1618
lfingers 7.12502
lthumb 11.9648 -29.5237
rfemur -22.1781 4.42951 26.1303
rtibia 42.3849
rfoot -16.4314 -21.1078
rtoes -4.07142
lfemur -24.1442 -6.53563 -23.1632
ltibia 47.3482
lfoot -23.8046 3.7693
ltoes -38.2979
442
root 8.73782 15.629 -6.15967 -175.133 -3.21455 -180.747
lowerback 19.5429 0.75175 0.408187
upperback -0.495675 0.939363 -0.226306
thorax -11.5515 0.354047 -0.745406
lowerneck -11.2107 -3.08033 -6.46127
upperneck -0.610283 -3.65133 5.0698
head 2.00915 -1.78732 2.6033
rclavicle -4.74598e-015 -2.08724e-015
rhumerus -34.3328 48.9068 -75.4495
rradius 71.7543
rwrist 0.605794
rhand 1.97786 -40.3114
rfingers 7.12502
rthumb 27.4834 -68.326
lclavicle -4.74598e-015 -2.08724e-015
lhumerus -44.0206 -45.2982 79.4518
lradius 54.7376
lwrist -7.39878
lhand -14.0716 -58.5564
lfingers 7.12502
lthumb 12.06 -28.9239
rfemur -21.1975 5.04416 25.7653
rtibia 41.3171
rfoot -16.5869 -21.4128
rtoes -5.57122
lfemur -22.9412 -7.11281 -23.4807
ltibia 45.2693
lfoot -24.4986 4.59794
ltoes -36.4409
443
root 8.71963 15.6716 -6.23164 -175.469 -3.0894 -181.163
lowerback 18.8392 0.872949 0.172381
upperback -0.622939 1.05343 -0.315329
thorax -11.2949 0.427778 -0.733362
lowerneck -12.6606 -3.3669 -6.00801
upperneck 1.12375 -3.96585 4.28226
head 2.84535 -1.93733 2.22849
rclavicle -8.39865e-015 4.37326e-015
rhumerus -36.6135 47.4787 -78.0655
rradius 70.0516
rwrist 0.990858
rhand 1.81283 -40.364
rfingers 7.12502
rthumb 27.3256 -68.4036
lclavicle -8.39865e-015 4.37326e-015
lhumerus -45.2713 -43.1569 81.4352
lradius 53.2197
lwrist -8.03887
lhand -14.0479 -58.1612
lfingers 7.12502
lthumb 12.0829 -28.5301
rfemur -20.1844 5.75683 25.1968
rtibia 40.144
rfoot -16.7208 -21.7662
rtoes -7.44708
lfemur -21.6587 -7.63594 -24.0449
ltibia 43.2194
lfoot -25.3276 5.54949
ltoes -36.2962
